<?xml version="1.0" ?><svg height="32px" version="1.1" viewBox="0 0 32 32" width="32px" xmlns="http://www.w3.org/2000/svg" xmlns:sketch="http://www.bohemiancoding.com/sketch/ns" xmlns:xlink="http://www.w3.org/1999/xlink"><title/><desc/><defs/><g fill="none" fill-rule="evenodd" id="Page-1" stroke="none" stroke-width="1"><g fill="#929292" id="icon-136-document-edit"><path d="M26.4432278,12.1503345 L15.1570131,23.4499064 L15.1570131,23.4499064 L12.5514465,20.8443397 L23.8435383,9.55064513 L26.4432278,12.1503345 L26.4432278,12.1503345 Z M27.1499164,11.4428096 L28.8790954,9.71158405 C29.269069,9.32114892 29.266195,8.68650423 28.8743,8.29568497 L27.6944866,7.11910998 C27.3018646,6.72756564 26.6692577,6.72452466 26.2779126,7.11592531 L24.5505949,8.84348817 L27.1499164,11.4428096 L27.1499164,11.4428096 Z M11.9037061,21.6108129 L11.2641602,24.7235103 L14.3990645,24.1061713 L11.9037061,21.6108129 L11.9037061,21.6108129 L11.9037061,21.6108129 Z M22,18 L22,28.0025781 C22,29.1090746 21.1057238,30 20.0025781,30 L4.99742191,30 C3.89092539,30 3,29.1012878 3,27.9926701 L3,5.00732994 C3,3.89833832 3.8992496,3 5.0085302,3 L15,3 L15,9.00189865 C15,10.1132936 15.8980806,11 17.0059191,11 L21,11 L25.5801067,6.41989327 C26.372781,5.62721897 27.6313906,5.6313906 28.4102504,6.41025036 L29.5897496,7.58974962 C30.3661881,8.36618809 30.3642921,9.63570785 29.5801067,10.4198932 L22,18 L22,18 Z M16,3 L16,8.99707067 C16,9.55097324 16.4509752,10 16.990778,10 L22,10 L16,3 L16,3 Z" id="document-edit"/></g></g></svg>